<svg width="360" height="273" viewBox="0 0 360 273" fill="none" xmlns="http://www.w3.org/2000/svg">
<path d="M137.5 252C98.3 251.2 23.6667 276.333 0 264.5V41H360.5V228.5C345.5 235 307 249.5 278.5 253.5C250 257.5 186.5 253 137.5 252Z" fill="#EBCAC3"/>
<path d="M117.5 272C78.3 271.2 23.1667 254.333 -0.5 242.5V19H360V250.5C353.833 239.667 329.3 221.1 288.5 221.5C237.5 222 166.5 273 117.5 272Z" fill="#E84728"/>
<path d="M120.5 249C81.3 248.2 23.1667 224.333 -0.5 212.5V-1H360V240.5C353.833 229.667 331.3 208.1 290.5 208.5C239.5 209 169.5 250 120.5 249Z" fill="#F9F9F9"/>
</svg>
